<?xml version="1.0" encoding="UTF-8"?>
<svg xmlns="http://www.w3.org/2000/svg" xmlns:xlink="http://www.w3.org/1999/xlink" width="32px" height="32px" viewBox="0 0 32 32" version="1.1">
<g id="surface1">
<path style=" stroke:none;fill-rule:evenodd;fill:rgb(68.627451%,7.45098%,23.921569%);fill-opacity:1;" d="M 4 9.332031 C 4 8.597656 4.597656 8 5.332031 8 L 26.667969 8 C 27.402344 8 28 8.597656 28 9.332031 C 28 10.070312 27.402344 10.667969 26.667969 10.667969 L 5.332031 10.667969 C 4.597656 10.667969 4 10.070312 4 9.332031 Z M 8 16 C 8 15.261719 8.597656 14.667969 9.332031 14.667969 L 22.667969 14.667969 C 23.402344 14.667969 24 15.261719 24 16 C 24 16.738281 23.402344 17.332031 22.667969 17.332031 L 9.332031 17.332031 C 8.597656 17.332031 8 16.738281 8 16 Z M 12 22.667969 C 12 21.929688 12.597656 21.332031 13.332031 21.332031 L 18.667969 21.332031 C 19.402344 21.332031 20 21.929688 20 22.667969 C 20 23.402344 19.402344 24 18.667969 24 L 13.332031 24 C 12.597656 24 12 23.402344 12 22.667969 Z M 12 22.667969 "/>
</g>
</svg>
