<?xml version="1.0" encoding="UTF-8"?>
<svg xmlns="http://www.w3.org/2000/svg" xmlns:xlink="http://www.w3.org/1999/xlink" width="18px" height="18px" viewBox="0 0 14 14" version="1.1">
<g id="surface1">
<path style=" stroke:none;fill-rule:nonzero;fill:rgb(74.509804%,14.901961%,29.803922%);fill-opacity:1;" d="M 9.101562 4.621094 L 8.644531 4.164062 L 3.070312 9.738281 C 2.546875 10.261719 2.546875 11.050781 3.070312 11.574219 C 3.59375 12.097656 4.382812 12.097656 4.90625 11.574219 L 12.578125 3.902344 C 13.496094 2.984375 13.496094 1.539062 12.578125 0.6875 C 11.660156 -0.230469 10.21875 -0.230469 9.300781 0.6875 L 1.691406 8.359375 C 0.382812 9.671875 0.445312 11.703125 1.691406 13.015625 C 3.003906 14.328125 5.035156 14.328125 6.347656 13.015625 L 11.921875 7.441406 L 11.398438 6.917969 L 5.824219 12.492188 C 4.773438 13.539062 3.136719 13.539062 2.085938 12.492188 C 1.035156 11.441406 1.035156 9.804688 2.085938 8.753906 L 9.757812 1.148438 C 10.414062 0.492188 11.464844 0.492188 12.054688 1.148438 C 12.710938 1.804688 12.710938 2.851562 12.054688 3.441406 L 4.445312 11.113281 C 4.183594 11.378906 3.792969 11.378906 3.527344 11.113281 C 3.265625 10.851562 3.265625 10.460938 3.527344 10.195312 Z M 9.101562 4.621094 "/>
</g>
</svg>
