<?xml version="1.0" encoding="UTF-8"?>
<svg xmlns="http://www.w3.org/2000/svg" xmlns:xlink="http://www.w3.org/1999/xlink" width="22px" height="22px" viewBox="0 0 26 26" version="1.1">
<g id="surface1">
<path style=" stroke:none;fill-rule:nonzero;fill:rgb(74.509804%,14.901961%,29.803922%);fill-opacity:1;" d="M 16.90625 8.585938 L 16.050781 7.734375 L 5.699219 18.085938 C 4.726562 19.058594 4.726562 20.519531 5.699219 21.496094 C 6.675781 22.46875 8.136719 22.46875 9.109375 21.496094 L 23.359375 7.246094 C 25.0625 5.539062 25.0625 2.863281 23.359375 1.277344 C 21.652344 -0.425781 18.976562 -0.425781 17.269531 1.277344 L 3.144531 15.527344 C 0.707031 17.960938 0.828125 21.738281 3.144531 24.171875 C 5.578125 26.609375 9.355469 26.609375 11.789062 24.171875 L 22.140625 13.820312 L 21.167969 12.847656 L 10.816406 23.199219 C 8.867188 25.148438 5.824219 25.148438 3.875 23.199219 C 1.925781 21.25 1.925781 18.207031 3.875 16.257812 L 18.121094 2.132812 C 19.339844 0.914062 21.289062 0.914062 22.386719 2.132812 C 23.601562 3.347656 23.601562 5.296875 22.386719 6.394531 L 8.257812 20.640625 C 7.769531 21.128906 7.039062 21.128906 6.554688 20.640625 C 6.066406 20.15625 6.066406 19.425781 6.554688 18.9375 Z M 16.90625 8.585938 "/>
</g>
</svg>
