<?xml version="1.0" encoding="UTF-8"?>
<svg xmlns="http://www.w3.org/2000/svg" xmlns:xlink="http://www.w3.org/1999/xlink" width="24px" height="24px" viewBox="0 0 32 32" version="1.1">
<g id="surface1">
<path style=" stroke:none;fill-rule:nonzero;fill:rgb(74.509804%,14.901961%,29.803922%);fill-opacity:1;" d="M 20.804688 10.566406 L 19.757812 9.515625 L 7.015625 22.257812 C 5.816406 23.457031 5.816406 25.253906 7.015625 26.453125 C 8.214844 27.652344 10.015625 27.652344 11.214844 26.453125 L 28.75 8.917969 C 30.847656 6.820312 30.847656 3.523438 28.75 1.574219 C 26.652344 -0.523438 23.355469 -0.523438 21.253906 1.574219 L 3.867188 19.109375 C 0.871094 22.109375 1.019531 26.753906 3.867188 29.75 C 6.867188 32.75 11.511719 32.75 14.511719 29.75 L 27.25 17.011719 L 26.050781 15.8125 L 13.3125 28.550781 C 10.914062 30.949219 7.167969 30.949219 4.769531 28.550781 C 2.371094 26.15625 2.371094 22.40625 4.769531 20.007812 L 22.304688 2.621094 C 23.804688 1.125 26.203125 1.125 27.550781 2.621094 C 29.050781 4.121094 29.050781 6.519531 27.550781 7.867188 L 10.164062 25.40625 C 9.566406 26.003906 8.664062 26.003906 8.066406 25.40625 C 7.464844 24.804688 7.464844 23.90625 8.066406 23.308594 Z M 20.804688 10.566406 "/>
</g>
</svg>
