<?xml version="1.0" encoding="UTF-8"?>
<svg xmlns="http://www.w3.org/2000/svg" xmlns:xlink="http://www.w3.org/1999/xlink" width="20px" height="20px" viewBox="0 0 20 20" version="1.1">
<g id="surface1">
<path style=" stroke:none;fill-rule:nonzero;fill:rgb(74.509804%,14.901961%,29.803922%);fill-opacity:1;" d="M 13.003906 6.605469 L 12.347656 5.949219 L 4.386719 13.910156 C 3.636719 14.660156 3.636719 15.785156 4.386719 16.535156 C 5.136719 17.285156 6.257812 17.285156 7.007812 16.535156 L 17.96875 5.574219 C 19.28125 4.261719 19.28125 2.203125 17.96875 0.984375 C 16.65625 -0.328125 14.597656 -0.328125 13.285156 0.984375 L 2.417969 11.945312 C 0.542969 13.816406 0.636719 16.722656 2.417969 18.59375 C 4.292969 20.46875 7.195312 20.46875 9.070312 18.59375 L 17.03125 10.632812 L 16.28125 9.882812 L 8.320312 17.84375 C 6.820312 19.34375 4.480469 19.34375 2.980469 17.84375 C 1.480469 16.347656 1.480469 14.003906 2.980469 12.503906 L 13.941406 1.640625 C 14.878906 0.703125 16.375 0.703125 17.21875 1.640625 C 18.15625 2.574219 18.15625 4.074219 17.21875 4.917969 L 6.351562 15.878906 C 5.976562 16.253906 5.414062 16.253906 5.042969 15.878906 C 4.667969 15.503906 4.667969 14.941406 5.042969 14.566406 Z M 13.003906 6.605469 "/>
</g>
</svg>
